<?xml version="1.0" encoding="UTF-8"?>
<!DOCTYPE svg PUBLIC "-//W3C//DTD SVG 1.1//EN" "http://www.w3.org/Graphics/SVG/1.1/DTD/svg11.dtd">
<!-- Creator: CorelDRAW (Versão de avaliação) -->
<svg xmlns="http://www.w3.org/2000/svg" xml:space="preserve" width="210mm" height="297mm" version="1.1" style="shape-rendering:geometricPrecision; text-rendering:geometricPrecision; image-rendering:optimizeQuality; fill-rule:evenodd; clip-rule:evenodd"
viewBox="0 0 21000 29700"
 xmlns:xlink="http://www.w3.org/1999/xlink"
 xmlns:xodm="http://www.corel.com/coreldraw/odm/2003">
 <defs>
  <style type="text/css">
   <![CDATA[
    .fil0 {fill:#103688}
    .fil1 {fill:#FFB800}
   ]]>
  </style>
 </defs>
 <g id="Camada_x0020_1">
  <metadata id="CorelCorpID_0Corel-Layer"/>
  <g id="_2378627603280">
   <path class="fil0" d="M10492.87 4200.53c5804.64,0 10510.23,4768.17 10510.23,10650 0,5881.83 -4705.59,10650 -10510.23,10650 -5804.64,0 -10510.23,-4768.17 -10510.23,-10650 0,-5881.83 4705.59,-10650 10510.23,-10650zm0 1247.89c5124.49,0 9278.72,4209.47 9278.72,9402.11 0,5192.64 -4154.23,9402.11 -9278.72,9402.11 -5124.49,0 -9278.72,-4209.47 -9278.72,-9402.11 0,-5192.64 4154.23,-9402.11 9278.72,-9402.11z"/>
   <g>
    <path class="fil1" d="M16539.67 8224.22l-439.28 3823.51 -1085.99 -984.96 -4924.8 4823.78 -2020.43 -2070.94 -5151.91 5139.14c-295.58,-556.67 -533.47,-1149.43 -705.65,-1770.07l5844.15 -5833.02 2020.43 2070.94 3700.1 -3624.21 -947.26 -921.75 3710.64 -652.42z"/>
    <g>
     <path class="fil0" d="M5199.94 21703.86l0 -4299.23 2795.65 -2788.72 213.06 218.39 0 8415.33c-1108.65,-313.32 -2127.63,-844.52 -3008.71,-1545.77z"/>
     <path class="fil0" d="M13435.47 23066.05l0 -9736.62 1528.11 -1496.77 909.6 824.98 0 9046.23c-727.57,578.99 -1549.29,1041.88 -2437.71,1362.18z"/>
     <path class="fil0" d="M8933.37 23420.32l0 -7843.19 1078.6 1105.57 2545.04 -2492.84 0 9140.29c-648.24,157.26 -1324.63,241.11 -2020.44,241.11 -547.86,0 -1083.62,-52.23 -1603.2,-150.94z"/>
    </g>
   </g>
  </g>
 </g>
</svg>
